<svg xmlns="http://www.w3.org/2000/svg" width="25" height="25" viewBox="0 0 25 25" fill="none">
  <path d="M9.73242 21.5277C10.0431 21.5277 10.2949 21.2759 10.2949 20.9652C10.2949 20.6545 10.0431 20.4027 9.73242 20.4027C9.42176 20.4027 9.16992 20.6545 9.16992 20.9652C9.16992 21.2759 9.42176 21.5277 9.73242 21.5277Z" fill="#22262A" stroke="#22262A" stroke-width="2" stroke-miterlimit="10" stroke-linecap="round" stroke-linejoin="round"/>
  <path d="M17.6074 21.5277C17.9181 21.5277 18.1699 21.2759 18.1699 20.9652C18.1699 20.6545 17.9181 20.4027 17.6074 20.4027C17.2968 20.4027 17.0449 20.6545 17.0449 20.9652C17.0449 21.2759 17.2968 21.5277 17.6074 21.5277Z" fill="#22262A" stroke="#22262A" stroke-width="2" stroke-miterlimit="10" stroke-linecap="round" stroke-linejoin="round"/>
  <path d="M3.54492 3.52771H5.79492L8.04492 17.0277H19.2949L21.5449 6.90271H6.91992" stroke="#22262A" stroke-width="2" stroke-linecap="round" stroke-linejoin="round"/>
</svg>